<svg width="104" height="114" viewBox="0 0 104 114" fill="none" xmlns="http://www.w3.org/2000/svg">
<g clip-path="url(#clip0_7_16)">
<path d="M83.9286 3.90112C80.6194 3.90112 23.7252 3.90112 20.0773 3.90112L0 31.2791L52.2157 100.099L104 31.2712L83.9286 3.90112ZM28.5454 34.2869L43.2566 78.2371L9.91022 34.2869H28.5454ZM34.9542 34.2869H69.0697L52.129 85.5977L34.9542 34.2869ZM75.4698 34.2869H94.1262L60.8812 78.4733L75.4698 34.2869ZM80.8487 9.97828L94.2184 28.2097H75.4738L69.4917 9.97828H80.8487ZM63.0957 9.97828L69.0778 28.2097H34.9278L40.91 9.97828H63.0957ZM23.1568 9.97828H34.5138L28.5316 28.2097H9.78706L23.1568 9.97828Z" fill="#F8D7A4"/>
</g>
<defs>
<clipPath id="clip0_7_16">
<rect width="104" height="114" fill="white"/>
</clipPath>
</defs>
</svg>
