<svg width="30" height="24" viewBox="0 0 30 24" fill="none" xmlns="http://www.w3.org/2000/svg">
<path d="M29.2535 2.82306C28.1777 3.28712 27.007 3.62111 25.8012 3.75119C27.0531 3.00741 27.9907 1.83236 28.4379 0.446499C27.2631 1.14537 25.9761 1.63543 24.634 1.89494C24.073 1.29526 23.3946 0.817537 22.641 0.491525C21.8873 0.165513 21.0746 -0.00179924 20.2535 1.45913e-05C16.9313 1.45913e-05 14.2594 2.69298 14.2594 5.99767C14.2594 6.46173 14.3156 6.9258 14.407 7.37228C9.43242 7.11212 4.9957 4.73556 2.04609 1.09689C1.50864 2.01487 1.227 3.06011 1.23047 4.12384C1.23047 6.20509 2.28867 8.04025 3.90234 9.11955C2.95138 9.0821 2.02269 8.82071 1.1918 8.35666V8.43048C1.1918 11.3449 3.25195 13.7602 5.99766 14.3156C5.48212 14.4496 4.95178 14.5181 4.41914 14.5195C4.02891 14.5195 3.65977 14.4809 3.28711 14.4281C4.04648 16.8047 6.25781 18.5309 8.89102 18.5871C6.83086 20.2008 4.25039 21.15 1.44844 21.15C0.945703 21.15 0.481641 21.1324 0 21.0762C2.65781 22.7813 5.81133 23.7656 9.20742 23.7656C20.2324 23.7656 26.2652 14.632 26.2652 6.70431C26.2652 6.44416 26.2652 6.184 26.2477 5.92384C27.4148 5.06955 28.4379 4.01134 29.2535 2.82306Z" fill="white"/>
</svg>
